<?xml version="1.0" standalone="no"?><!DOCTYPE svg PUBLIC "-//W3C//DTD SVG 1.1//EN" "http://www.w3.org/Graphics/SVG/1.1/DTD/svg11.dtd"><svg t="1705121639961" class="icon" viewBox="0 0 1024 1024" version="1.1" xmlns="http://www.w3.org/2000/svg" p-id="4255" xmlns:xlink="http://www.w3.org/1999/xlink" width="200" height="200"><path d="M608 272c17.6 0 32-14.4 32-32s-14.4-32-32-32-32 14.4-32 32 14.4 32 32 32z m352 444.8V51.2c0-32-19.2-51.2-51.2-51.2H256C147.2 0 64 83.2 64 192v640c0 108.8 83.2 192 192 192h652.8c25.6 0 51.2-19.2 51.2-51.2v-32c0-12.8-6.4-25.6-19.2-38.4-6.4-32-6.4-121.6 0-147.2 12.8-6.4 19.2-19.2 19.2-38.4zM544 112c88.4 0 160 57.4 160 128 0 41.8-25.4 78.4-64 101.8V368c0 17.6-14.4 32-32 32h-128c-17.6 0-32-14.4-32-32v-26.2c-38.6-23.4-64-60-64-101.8 0-70.6 71.6-128 160-128zM313.6 446.6l12.6-29.4c3.4-8.2 12.8-11.8 21-8.4l196.6 84.2 196.8-84.2c8.2-3.4 17.6 0.2 21 8.4l12.6 29.4c3.4 8.2-0.2 17.6-8.4 21L625.2 528l140.6 60.2c8.2 3.4 11.8 12.8 8.4 21l-12.6 29.4c-3.4 8.2-12.8 11.8-21 8.4L544 562.8l-196.6 84.4c-8.2 3.4-17.6-0.2-21-8.4l-12.6-29.4c-3.4-8.2 0.2-17.6 8.4-21l140.8-60.2-141-60.6c-8.2-3.4-11.8-12.8-8.4-21z m512 449.4H256c-38.4 0-64-25.6-64-64s32-64 64-64h569.6zM480 272c17.6 0 32-14.4 32-32s-14.4-32-32-32-32 14.4-32 32 14.4 32 32 32z" p-id="4256"></path></svg>